<svg id="圖層_1" data-name="圖層 1" xmlns="http://www.w3.org/2000/svg" xmlns:xlink="http://www.w3.org/1999/xlink" viewBox="0 0 1763 452"><defs><style>.cls-1,.cls-10,.cls-11,.cls-12,.cls-13,.cls-2,.cls-3,.cls-4,.cls-5,.cls-6,.cls-7,.cls-8,.cls-9{fill:none;stroke-miterlimit:10;}.cls-1{stroke:url(#未命名漸層_9);}.cls-2{stroke:url(#未命名漸層_9-2);}.cls-3{stroke:url(#未命名漸層_9-3);}.cls-4{stroke:url(#未命名漸層_9-4);}.cls-5{stroke:url(#未命名漸層_9-5);}.cls-6{stroke:url(#未命名漸層_9-6);}.cls-7{stroke:url(#未命名漸層_9-7);}.cls-8{stroke:url(#未命名漸層_9-8);}.cls-9{stroke:url(#未命名漸層_9-9);}.cls-10{stroke:url(#未命名漸層_9-10);}.cls-11{stroke:url(#未命名漸層_9-11);}.cls-12{stroke:url(#未命名漸層_9-12);}.cls-13{stroke:url(#未命名漸層_9-13);}</style><linearGradient id="未命名漸層_9" x1="238.15" y1="209.53" x2="1812.82" y2="209.53" gradientTransform="translate(-120.31 -222.29) rotate(13.06)" gradientUnits="userSpaceOnUse"><stop offset="0" stop-color="#fff"/><stop offset="0.09" stop-color="#a9cf59"/><stop offset="0.21" stop-color="#fff"/><stop offset="0.33" stop-color="#a9cf59"/><stop offset="0.97" stop-color="#fff"/></linearGradient><linearGradient id="未命名漸層_9-2" x1="238.15" y1="194.53" x2="1812.82" y2="194.53" xlink:href="#未命名漸層_9"/><linearGradient id="未命名漸層_9-3" x1="238.15" y1="179.53" x2="1812.82" y2="179.53" xlink:href="#未命名漸層_9"/><linearGradient id="未命名漸層_9-4" x1="238.15" y1="164.53" x2="1812.82" y2="164.53" xlink:href="#未命名漸層_9"/><linearGradient id="未命名漸層_9-5" x1="238.15" y1="149.53" x2="1812.82" y2="149.53" xlink:href="#未命名漸層_9"/><linearGradient id="未命名漸層_9-6" x1="238.15" y1="134.53" x2="1812.82" y2="134.53" xlink:href="#未命名漸層_9"/><linearGradient id="未命名漸層_9-7" x1="238.15" y1="119.53" x2="1812.82" y2="119.53" xlink:href="#未命名漸層_9"/><linearGradient id="未命名漸層_9-8" x1="238.15" y1="104.53" x2="1812.82" y2="104.53" xlink:href="#未命名漸層_9"/><linearGradient id="未命名漸層_9-9" x1="238.15" y1="89.53" x2="1812.82" y2="89.53" xlink:href="#未命名漸層_9"/><linearGradient id="未命名漸層_9-10" x1="238.15" y1="74.53" x2="1812.82" y2="74.53" xlink:href="#未命名漸層_9"/><linearGradient id="未命名漸層_9-11" x1="238.15" y1="59.53" x2="1812.82" y2="59.53" xlink:href="#未命名漸層_9"/><linearGradient id="未命名漸層_9-12" x1="238.15" y1="44.53" x2="1812.82" y2="44.53" xlink:href="#未命名漸層_9"/><linearGradient id="未命名漸層_9-13" x1="238.15" y1="29.53" x2="1812.82" y2="29.53" xlink:href="#未命名漸層_9"/></defs><path class="cls-1" d="M19.59,229.13s364.85-41.6,575.13,114,986.05,28.63,1048.55-147.81"/><path class="cls-2" d="M23,214.52s364.85-41.61,575.13,114,986.05,28.63,1048.55-147.81"/><path class="cls-3" d="M26.37,199.91s364.85-41.61,575.13,114,986.05,28.63,1048.55-147.81"/><path class="cls-4" d="M29.76,185.3s364.85-41.61,575.13,114,986.05,28.63,1048.55-147.81"/><path class="cls-5" d="M33.15,170.69s364.85-41.61,575.13,114,986.05,28.62,1048.55-147.82"/><path class="cls-6" d="M36.54,156.07s364.85-41.6,575.13,114,986.05,28.63,1048.55-147.81"/><path class="cls-7" d="M39.93,141.46s364.85-41.61,575.13,114S1601.11,284,1663.61,107.6"/><path class="cls-8" d="M43.32,126.85s364.85-41.61,575.13,114S1604.5,269.43,1667,93"/><path class="cls-9" d="M46.71,112.24s364.85-41.61,575.13,114,986.05,28.63,1048.55-147.81"/><path class="cls-10" d="M50.1,97.63S415,56,625.23,211.58,1611.28,240.2,1673.78,63.77"/><path class="cls-11" d="M53.5,83s364.84-41.6,575.12,114,986.05,28.62,1048.55-147.82"/><path class="cls-12" d="M56.89,68.4S421.73,26.8,632,182.35,1618.06,211,1680.56,34.54"/><path class="cls-13" d="M60.28,53.79s364.84-41.61,575.12,114S1621.45,196.37,1684,19.93"/></svg>