<svg width="147" height="79" viewBox="0 0 147 79" fill="none" xmlns="http://www.w3.org/2000/svg">
<g clip-path="url(#clip0_659_266)">
<path d="M21.8435 45.7851C19.1283 43.2479 13.0635 39.0803 8.82317 36.4591L15.4547 28.9384C19.5806 31.1733 25.8412 34.9086 28.8667 37.4037L21.8435 45.7851ZM23.9989 25.6748C21.2837 23.1376 15.2189 18.97 10.9785 16.3488L17.6101 8.82812C21.736 11.0631 27.9966 14.7983 31.0221 17.2935L23.9989 25.6748ZM29.1618 58.9642C25.4013 65.425 21.4174 71.8655 17.1729 77.8994L7.99854 69.8732C12.1617 64.6593 18.0417 56.2319 22.9909 47.94L29.6417 54.4984L31.0579 55.8104L29.1632 58.9669L29.1618 58.9642Z" fill="url(#paint0_linear_659_266)"/>
<path d="M41.2182 67.5218C41.2306 61.9446 41.9518 59.2611 41.9615 54.3074C41.967 51.4856 40.417 48.6598 35.665 48.5093L35.6802 41.3519C40.4322 41.154 41.996 38.3363 42.0015 35.5836C42.0125 30.6258 41.3023 27.9396 41.3148 22.4329C41.3341 13.8293 44.332 11.0807 50.9704 11.0943L55.8492 11.1051L55.8355 17.5754L54.5323 17.5727C51.4765 17.566 50.6946 18.5987 50.6849 22.8666C50.6767 26.9949 50.9277 30.7817 50.9166 35.5321C50.9028 41.5904 49.0757 43.8579 45.2338 44.8134V45.1576C49.0715 46.0603 50.889 48.3358 50.8753 54.4619C50.8656 59.0713 50.5981 62.8581 50.5884 67.0583C50.5788 71.3262 51.3551 72.3589 54.4124 72.3657L55.7155 72.3684L55.7017 78.8387L50.8228 78.8279C44.1858 78.8143 41.1989 76.0522 41.2168 67.5191L41.2182 67.5218Z" fill="url(#paint1_linear_659_266)"/>
<path d="M131.693 78.9998L126.814 78.989L126.828 72.5187L128.131 72.5214C131.187 72.5282 131.969 71.4981 131.979 67.2302C131.988 63.0287 131.736 59.2433 131.747 54.6325C131.761 48.5064 133.588 46.2376 137.43 45.3512V45.007C133.592 44.0352 131.775 41.761 131.788 35.7027C131.798 30.9523 132.067 27.1669 132.075 23.0385C132.085 18.7706 131.309 17.7352 128.251 17.7284L126.948 17.7257L126.962 11.2554L131.841 11.2662C138.478 11.2798 141.465 14.0419 141.447 22.6441C141.434 28.1508 140.715 30.8344 140.704 35.7921C140.698 38.5448 142.249 41.3693 147 41.5875L146.985 48.745C142.233 48.8751 140.669 51.6941 140.664 54.5159C140.653 59.471 141.363 62.1572 141.35 67.7344C141.332 76.2675 138.333 79.0161 131.696 79.0025L131.693 78.9998Z" fill="url(#paint2_linear_659_266)"/>
<path d="M67.9578 14.274L72.1541 14.2822L72.525 17.0985H72.6119C73.8295 14.9395 75.6567 13.8905 77.306 13.8945C78.2906 13.8973 78.8394 14.0396 79.3013 14.2402L78.4533 18.5894C77.8451 18.4457 77.3556 18.3305 76.633 18.3292C75.4167 18.3264 73.9385 19.0909 73.0945 21.2228L73.0738 30.4674L67.9233 30.4566L67.9592 14.2727L67.9578 14.274Z" fill="url(#paint3_linear_659_266)"/>
<path d="M82.4927 22.3828C82.5037 17.1485 86.3607 13.9147 90.3253 13.9229C95.0704 13.9324 97.3802 17.322 97.3705 21.7309C97.3692 22.6417 97.2506 23.5226 97.1347 23.9211L87.4694 23.9008C87.9259 26.1194 89.4869 27.0329 91.5719 27.037C92.7578 27.0397 93.8583 26.7008 95.0456 26.0205L96.7472 29.0672C95.0359 30.2586 92.7771 30.9078 90.8686 30.9037C86.1235 30.8942 82.4816 27.7566 82.4941 22.3814L82.4927 22.3828ZM93.0019 20.5843C93.0061 18.9904 92.2848 17.795 90.4039 17.791C88.9849 17.7882 87.7397 18.6665 87.3895 20.5721L93.0019 20.5843Z" fill="url(#paint4_linear_659_266)"/>
<path d="M99.8412 14.3403L105.021 14.3512L107.002 21.8068C107.433 23.4007 107.806 25.0799 108.235 26.7876H108.379C108.788 25.0813 109.196 23.4047 109.606 21.8122L111.648 14.3647L116.596 14.3756L111.236 30.5486L105.274 30.5364L99.8398 14.3417L99.8412 14.3403Z" fill="url(#paint5_linear_659_266)"/>
<path d="M67.8561 61.3062L73.0066 61.317L72.9859 70.5617C73.8202 72.6963 75.2957 73.4675 76.512 73.4702C77.2359 73.4715 77.7255 73.359 78.3336 73.2181L79.1624 77.5714C78.7004 77.7693 78.1502 77.9102 77.1656 77.9089C75.5163 77.9048 73.6947 76.849 72.4853 74.6845H72.3985L72.0151 77.4996L67.8188 77.4914L67.8547 61.3075L67.8561 61.3062Z" fill="url(#paint6_linear_659_266)"/>
<path d="M90.8025 60.9566C92.711 60.9606 94.967 61.6193 96.6728 62.8188L94.9573 65.8588C93.7742 65.173 92.6737 64.8301 91.4892 64.8274C89.4042 64.8233 87.839 65.73 87.3729 67.946L97.0382 67.9663C97.1527 68.3648 97.2658 69.2471 97.2644 70.1578C97.2547 74.5667 94.9311 77.9455 90.186 77.936C86.2228 77.9279 82.3796 74.6779 82.3906 69.4436C82.4017 64.0684 86.0574 60.9471 90.8025 60.9566ZM87.2791 71.2733C87.6211 73.1802 88.8636 74.0639 90.2826 74.0666C92.1635 74.0707 92.8888 72.878 92.893 71.2855L87.2805 71.2733H87.2791Z" fill="url(#paint7_linear_659_266)"/>
<path d="M105.209 61.3848L111.17 61.397L116.46 77.5917L111.512 77.5809L109.501 70.1252C109.1 68.5314 108.697 66.8521 108.296 65.1444H108.153C107.716 66.8494 107.335 68.5273 106.898 70.1198L104.883 77.5673L99.7036 77.5565L105.209 61.3848Z" fill="url(#paint8_linear_659_266)"/>
<path d="M79.9138 41.5793C78.9306 40.7024 78.9196 39.4447 79.8917 38.3903C80.8488 37.3534 82.1395 37.2247 83.1227 38.1002C84.1238 38.992 84.1197 40.2687 83.1627 41.3056C82.1905 42.36 80.9135 42.4711 79.9124 41.5793H79.9138ZM96.6188 56.1233C95.6356 55.2464 95.6246 53.9887 96.5967 52.9342C97.5538 51.8974 98.8445 51.7687 99.8277 52.6442C100.829 53.536 100.825 54.8127 99.8677 55.8495C98.8955 56.904 97.6186 57.0151 96.6174 56.1233H96.6188ZM83.1337 44.1287L86.0186 41.002L96.19 50.0677L93.3051 53.1945L83.1337 44.1287Z" fill="url(#paint9_linear_659_266)"/>
</g>
<defs>
<linearGradient id="paint0_linear_659_266" x1="-56.8124" y1="57.617" x2="178.385" y2="10.8477" gradientUnits="userSpaceOnUse">
<stop stop-color="white"/>
<stop offset="0.09" stop-color="#0B318F"/>
<stop offset="0.21" stop-color="white"/>
<stop offset="0.33" stop-color="#0B318F"/>
<stop offset="0.52" stop-color="#E95483"/>
<stop offset="0.66" stop-color="white"/>
<stop offset="0.74" stop-color="#0B318F"/>
<stop offset="0.82" stop-color="#E95483"/>
<stop offset="0.97" stop-color="white"/>
</linearGradient>
<linearGradient id="paint1_linear_659_266" x1="-55.2156" y1="65.6474" x2="179.981" y2="18.8794" gradientUnits="userSpaceOnUse">
<stop stop-color="white"/>
<stop offset="0.09" stop-color="#0B318F"/>
<stop offset="0.21" stop-color="white"/>
<stop offset="0.33" stop-color="#0B318F"/>
<stop offset="0.52" stop-color="#E95483"/>
<stop offset="0.66" stop-color="white"/>
<stop offset="0.74" stop-color="#0B318F"/>
<stop offset="0.82" stop-color="#E95483"/>
<stop offset="0.97" stop-color="white"/>
</linearGradient>
<linearGradient id="paint2_linear_659_266" x1="-52.324" y1="80.1912" x2="182.873" y2="33.4218" gradientUnits="userSpaceOnUse">
<stop stop-color="white"/>
<stop offset="0.09" stop-color="#0B318F"/>
<stop offset="0.21" stop-color="white"/>
<stop offset="0.33" stop-color="#0B318F"/>
<stop offset="0.52" stop-color="#E95483"/>
<stop offset="0.66" stop-color="white"/>
<stop offset="0.74" stop-color="#0B318F"/>
<stop offset="0.82" stop-color="#E95483"/>
<stop offset="0.97" stop-color="white"/>
</linearGradient>
<linearGradient id="paint3_linear_659_266" x1="-58.8785" y1="47.226" x2="176.318" y2="0.456647" gradientUnits="userSpaceOnUse">
<stop stop-color="white"/>
<stop offset="0.09" stop-color="#0B318F"/>
<stop offset="0.21" stop-color="white"/>
<stop offset="0.33" stop-color="#0B318F"/>
<stop offset="0.52" stop-color="#E95483"/>
<stop offset="0.74" stop-color="#0B318F"/>
<stop offset="0.82" stop-color="#E95483"/>
<stop offset="0.97" stop-color="white"/>
</linearGradient>
<linearGradient id="paint4_linear_659_266" x1="-58.128" y1="50.9991" x2="177.069" y2="4.22971" gradientUnits="userSpaceOnUse">
<stop stop-color="white"/>
<stop offset="0.09" stop-color="#0B318F"/>
<stop offset="0.21" stop-color="white"/>
<stop offset="0.33" stop-color="#0B318F"/>
<stop offset="0.52" stop-color="#E95483"/>
<stop offset="0.74" stop-color="#0B318F"/>
<stop offset="0.82" stop-color="#E95483"/>
<stop offset="0.97" stop-color="white"/>
</linearGradient>
<linearGradient id="paint5_linear_659_266" x1="-57.5768" y1="53.7762" x2="177.62" y2="7.0068" gradientUnits="userSpaceOnUse">
<stop stop-color="white"/>
<stop offset="0.09" stop-color="#0B318F"/>
<stop offset="0.21" stop-color="white"/>
<stop offset="0.33" stop-color="#0B318F"/>
<stop offset="0.52" stop-color="#E95483"/>
<stop offset="0.74" stop-color="#0B318F"/>
<stop offset="0.82" stop-color="#E95483"/>
<stop offset="0.97" stop-color="white"/>
</linearGradient>
<linearGradient id="paint6_linear_659_266" x1="-49.7451" y1="93.1576" x2="185.452" y2="46.3896" gradientUnits="userSpaceOnUse">
<stop stop-color="white"/>
<stop offset="0.09" stop-color="#0B318F"/>
<stop offset="0.21" stop-color="white"/>
<stop offset="0.33" stop-color="#0B318F"/>
<stop offset="0.52" stop-color="#E95483"/>
<stop offset="0.66" stop-color="white"/>
<stop offset="0.74" stop-color="#0B318F"/>
<stop offset="0.82" stop-color="#E95483"/>
<stop offset="0.97" stop-color="white"/>
</linearGradient>
<linearGradient id="paint7_linear_659_266" x1="-49.13" y1="96.2532" x2="186.068" y2="49.4853" gradientUnits="userSpaceOnUse">
<stop stop-color="white"/>
<stop offset="0.09" stop-color="#0B318F"/>
<stop offset="0.21" stop-color="white"/>
<stop offset="0.33" stop-color="#0B318F"/>
<stop offset="0.52" stop-color="#E95483"/>
<stop offset="0.74" stop-color="#0B318F"/>
<stop offset="0.82" stop-color="#E95483"/>
<stop offset="0.97" stop-color="white"/>
</linearGradient>
<linearGradient id="paint8_linear_659_266" x1="-48.3704" y1="100.068" x2="186.827" y2="53.3004" gradientUnits="userSpaceOnUse">
<stop stop-color="white"/>
<stop offset="0.09" stop-color="#0B318F"/>
<stop offset="0.21" stop-color="white"/>
<stop offset="0.33" stop-color="#0B318F"/>
<stop offset="0.52" stop-color="#E95483"/>
<stop offset="0.74" stop-color="#0B318F"/>
<stop offset="0.82" stop-color="#E95483"/>
<stop offset="0.97" stop-color="white"/>
</linearGradient>
<linearGradient id="paint9_linear_659_266" x1="-53.4258" y1="74.6492" x2="181.771" y2="27.8799" gradientUnits="userSpaceOnUse">
<stop stop-color="white"/>
<stop offset="0.09" stop-color="#0B318F"/>
<stop offset="0.21" stop-color="white"/>
<stop offset="0.33" stop-color="#0B318F"/>
<stop offset="0.52" stop-color="#E95483"/>
<stop offset="0.74" stop-color="#0B318F"/>
<stop offset="0.82" stop-color="#E95483"/>
<stop offset="0.97" stop-color="white"/>
</linearGradient>
<clipPath id="clip0_659_266">
<rect width="147" height="79" fill="white"/>
</clipPath>
</defs>
</svg>
