<svg width="175" height="41" viewBox="0 0 175 41" fill="none" xmlns="http://www.w3.org/2000/svg">
<path d="M13.1711 23.3239C11.7507 21.9338 8.58101 19.6509 6.36453 18.2174L9.80866 14.0688C11.9644 15.2895 15.2367 17.3268 16.8184 18.6996L13.1711 23.3239ZM14.2584 12.2573C12.838 10.8672 9.66829 8.58433 7.45181 7.15078L10.8959 3C13.0517 4.22286 16.324 6.25807 17.9057 7.63298L14.2584 12.2573ZM17.0133 30.5611C15.0629 34.1211 12.9993 37.6724 10.7954 41L6 36.5973C8.8293 32.7341 11.4271 28.6945 13.7786 24.5011L17.2584 28.098L18 28.817L17.0133 30.5611Z" fill="black"/>
<path d="M24.0698 34.8384C24.0698 31.7931 24.4538 30.3266 24.4494 27.6199C24.4494 26.0779 23.5959 24.5381 21 24.4647V20.5547C23.5959 20.4382 24.445 18.8962 24.4428 17.393C24.4428 14.6842 24.0457 13.2176 24.0413 10.2112C24.0413 5.51183 25.6673 4.00431 29.2944 4H31.9583V7.5348H31.2474C29.5775 7.5348 29.154 8.10416 29.1562 10.4355C29.1562 12.6893 29.3032 14.7489 29.3076 17.352C29.3076 20.6625 28.318 21.9026 26.2224 22.4331V22.6208C28.3202 23.106 29.3164 24.3461 29.3208 27.6933C29.3208 30.2101 29.1869 32.2784 29.1891 34.5731C29.1891 36.9045 29.628 37.4674 31.289 37.4652H32V41H29.3383C25.7112 41.0022 24.0764 39.5011 24.0698 34.8384Z" fill="black"/>
<path d="M72.7039 41H70.0395V37.4652H70.7506C72.4208 37.4652 72.8444 36.898 72.8422 34.5666C72.8422 32.2719 72.6951 30.2037 72.6907 27.6868C72.6907 24.3397 73.6806 23.0974 75.7787 22.6057V22.418C73.6806 21.894 72.6842 20.656 72.6798 17.3455C72.6798 14.7575 72.8136 12.6828 72.8115 10.4269C72.8115 8.09553 72.3725 7.53264 70.7133 7.5348H70V4H72.6644C76.2923 4 77.9318 5.49674 77.9318 10.1961C77.9318 13.2047 77.5455 14.6713 77.5499 17.38C77.5499 18.8897 78.4058 20.4231 81 20.5331V24.4432C78.4036 24.523 77.5543 26.065 77.5565 27.607C77.5565 30.3137 77.9537 31.7802 77.9581 34.8254C77.9581 39.4882 76.3252 40.9871 72.7039 41Z" fill="black"/>
<path d="M38 6.22383H40.2158L40.4174 7.75152H40.4641C41.1008 6.57737 42.0665 6.00529 42.9388 6.00314C43.3017 5.98469 43.6641 6.04763 44 6.18741L43.5607 8.54429C43.2475 8.4566 42.9242 8.4105 42.5992 8.40716C41.9625 8.40716 41.1751 8.82498 40.7336 9.98413V15H38.0106L38 6.22383Z" fill="black"/>
<path d="M46 10.501C46 7.72375 48.0652 6.00209 50.1952 6C52.7465 6 53.9952 7.79077 53.9995 10.1282C54.0052 10.519 53.9639 10.9091 53.8763 11.2906H48.6787C48.9293 12.4677 49.7697 12.9495 50.8909 12.9474C51.5528 12.9357 52.1987 12.7473 52.7573 12.4028L53.6776 14.0155C52.7485 14.6394 51.6493 14.982 50.5193 15C47.968 15.0104 46 13.3537 46 10.501ZM51.6469 9.52919C51.6469 8.6914 51.2559 8.05049 50.2449 8.05049C49.4824 8.05049 48.8148 8.52174 48.6291 9.53128L51.6469 9.52919Z" fill="black"/>
<path d="M55 6.00659H57.7819L58.8618 10.1466C59.095 11.0246 59.2937 11.9641 59.5335 12.9146H59.6112C59.8272 11.9641 60.0432 11.0312 60.2592 10.1444L61.3391 6H64L61.1469 15H57.9417L55 6.00659Z" fill="black"/>
<path d="M38 31H40.7219V36.0207C41.1677 37.1784 41.949 37.5943 42.5902 37.5921C42.9161 37.588 43.2402 37.5411 43.5541 37.4528L44 39.8109C43.6638 39.9503 43.3015 40.014 42.9384 39.9974C42.0679 39.9974 41.1019 39.4272 40.4607 38.2546H40.414L40.2166 39.7852H38.0191L38 31Z" fill="black"/>
<path d="M50.5064 31C51.6364 31.0144 52.7365 31.3536 53.6669 31.9744L52.7509 33.5867C52.1915 33.2449 51.5459 33.0583 50.8844 33.0472C49.7632 33.0472 48.9229 33.5323 48.6766 34.7075H53.8743C53.9625 35.0883 54.0046 35.4778 53.9996 35.868C53.9996 38.2038 52.7596 39.9979 50.2083 40C48.076 40 46.0043 38.2895 46 35.5167C46 32.6624 47.9594 31.0021 50.5064 31ZM48.6312 36.4703C48.8192 37.4782 49.4954 37.934 50.2515 37.934C51.2625 37.934 51.6514 37.3067 51.6492 36.4556L48.6312 36.4703Z" fill="black"/>
<path d="M58.251 31H61.8089L65 39.9934H62.0463L60.8307 35.8564C60.591 34.979 60.3512 34.0402 60.1115 33.0904H60.0252C59.7686 34.0402 59.5457 34.9725 59.2867 35.8586L58.1 40H55L58.251 31Z" fill="black"/>
<path d="M44.419 20.342C43.8679 19.8386 43.8589 19.1174 44.401 18.5096C44.9431 17.9018 45.6583 17.8293 46.2004 18.3373C46.7425 18.8453 46.7627 19.58 46.2296 20.1765C45.6966 20.7729 44.9813 20.8546 44.419 20.342ZM53.8006 28.6627C53.2495 28.1592 53.2405 27.4381 53.7826 26.8303C54.3247 26.2225 55.0399 26.1499 55.582 26.6579C56.1241 27.1659 56.1443 27.9007 55.6112 28.4971C55.0782 29.0936 54.3719 29.173 53.8006 28.6627ZM46.2274 21.798L47.8356 19.9973L53.5487 25.1839L51.9405 26.9777L46.2274 21.798Z" fill="black"/>
<path d="M104 25.6352V26.8532H98.8981V27.1294H102.835V28.259H93.1249V27.1294H96.9295V26.8532H92V25.6407H96.9295V25H98.8981V25.6407L104 25.6352ZM92.0796 31.0291H103.894V33.2054H102.233V33.581H101.602C102.084 33.9014 102.541 34.2356 102.862 34.5007L101.978 35.2409H102.7V36.3843H98.8981V36.6771H103.854V38H92.1459V36.6771H96.9215V36.3843H93.4725V35.2409H96.9215V35.0034C94.8176 35.0725 94.4011 35.1166 94.0933 35.2133C93.9842 34.8025 93.8549 34.3978 93.7059 34.0009C93.9472 33.9663 94.1851 33.91 94.417 33.8324C94.6262 33.7599 94.8317 33.676 95.0325 33.581H93.5308V33.2054H92.0716L92.0796 31.0291ZM102.514 28.5628V30.7363H93.5521V28.5628H102.514ZM93.8068 32.2581V32.5343H102.071V32.2581H93.8068ZM100.612 29.4963H95.335V29.8028H100.612V29.4963ZM99.6065 33.8876C99.4207 33.7771 99.2324 33.6805 99.0573 33.581V33.5672H97.1019C96.8897 33.6943 96.688 33.8186 96.4599 33.929L99.6065 33.8876ZM101.482 35.2271C101.36 35.1139 101.217 35.0034 101.052 34.8791L98.8981 34.9344V35.2271H101.482Z" fill="black"/>
<path d="M116.957 30.622C117.857 33.1104 119.458 35.1169 122 36.0942C121.415 36.656 120.913 37.2977 120.509 38C118.076 36.8865 116.558 35.0597 115.493 32.6258C114.708 34.7439 113.241 36.6524 110.521 38C110.124 37.3437 109.608 36.7659 109 36.2957C112.026 34.9345 113.296 32.8735 113.851 30.6329H109.296V28.5583H114.199C114.295 27.3495 114.281 26.138 114.295 25H116.506C116.506 26.138 116.478 27.3495 116.366 28.5583H121.672V30.622H116.957Z" fill="black"/>
<path d="M137.798 31.9105C137.836 31.9116 137.873 31.8971 137.901 31.87C137.944 31.8009 137.966 31.7201 137.965 31.6377C137.996 31.3481 138.013 31.057 138.015 30.7655C138.311 31.0108 138.644 31.1999 139 31.3245C138.995 31.7437 138.939 32.1604 138.833 32.564C138.769 32.7811 138.627 32.9625 138.438 33.069C138.249 33.1757 138.037 33.2279 137.823 33.2202H137.289C137.137 33.2276 136.984 33.2022 136.841 33.1456C136.698 33.089 136.567 33.0024 136.456 32.8907C136.264 32.6747 136.188 32.4155 136.175 31.7187L135.702 32.402C135.495 32.2097 135.273 32.0362 135.039 31.8835C134.673 32.5425 134.165 33.0982 133.556 33.5037C133.367 33.2645 133.158 33.0448 132.93 32.8475V33.1473C130.906 33.285 128.815 33.4173 127.309 33.4902L127.256 32.4101C127.858 32.4101 128.572 32.3696 129.364 32.3399V32.0131H127.845V31.1273C127.754 31.1408 127.666 31.1678 127.564 31.1814C127.435 30.8559 127.243 30.5632 127 30.3226C127.833 30.2281 128.24 30.0931 128.433 29.8203H127.334V28.8644H129.359V28.5781H127.891V27.6654H129.359V27.3791H130.893V27.6654H132.389V28.5781H130.893V28.8644H132.976V29.8203H131.457V29.8473C131.457 30.0229 131.47 30.1039 131.65 30.1039H131.943C132.154 30.1102 132.365 30.0875 132.571 30.0364C132.596 30.3064 132.596 30.5764 132.634 30.8681C132.417 30.9251 132.192 30.9488 131.969 30.9383H131.331C131.184 30.9451 131.037 30.9259 130.895 30.8816V31.1003H132.455V32.0131H130.895V32.2831L132.89 32.2021C133.246 31.9039 133.552 31.5443 133.796 31.1381C133.452 30.9599 133.105 30.7844 132.784 30.6467L133.523 29.6124H133.153V28.2622H134.366V27.4844H135.72V28.2622H137.613V31.4784C137.602 31.6105 137.602 31.7433 137.613 31.8754C137.626 31.9294 137.651 31.9429 137.689 31.9429L137.798 31.9105ZM127.142 34.8675H138.706V35.9477H136.611C137.196 36.3038 137.748 36.7199 138.258 37.1899L136.993 38C136.827 37.8257 136.652 37.6616 136.469 37.5085C129.863 37.7273 128.957 37.7408 128.278 37.9163C128.128 37.4876 127.953 37.0692 127.754 36.6633C128.052 36.6064 128.341 36.5055 128.612 36.3635C128.764 36.2933 129.07 36.1448 129.417 35.9396H127.154L127.142 34.8675ZM129.926 27.0172H127.23V25.6805H129.928V25H131.728V25.6805H132.814V27.0172H131.728V27.3305H129.928L129.926 27.0172ZM129.362 31.0922V30.4117H130.463C130.411 30.2215 130.389 30.0236 130.397 29.8257V29.8122H129.594C129.417 30.4387 128.969 30.8465 127.947 31.0922H129.362ZM137.208 33.5065V34.5866H128.764V33.5065H137.208ZM134.91 36.4229C134.735 36.3125 134.555 36.2124 134.371 36.1232L134.679 35.945H131.832C131.538 36.1367 131.245 36.3284 130.936 36.504L134.91 36.4229ZM134.102 27.0172H133.158V25.6805H134.102V25H135.93V25.6805H138.706V27.0172H135.945V27.3305H134.117L134.102 27.0172ZM133.596 29.5935C133.817 29.6766 134.035 29.7722 134.247 29.8797C134.247 29.7825 134.285 29.688 134.297 29.5935H133.596ZM135.677 29.5935C135.65 29.915 135.599 30.2338 135.525 30.5467C135.755 30.6845 135.958 30.8168 136.15 30.941V29.5908L135.677 29.5935Z" fill="black"/>
<path d="M156.997 31.1325H156.036V35.8031C156.036 36.6927 155.929 37.2134 155.388 37.5281C154.848 37.8427 154.186 37.8698 153.308 37.8698C153.23 37.2077 153.054 36.5613 152.786 35.9522C153.233 35.9522 153.771 35.9522 153.948 35.9522C154.125 35.9522 154.165 35.9115 154.165 35.7596V31.1325H153.204V29.9825H151.33V37.9322H149.627V29.9825H147.967V29.1688C147.791 29.5539 147.587 29.9499 147.373 30.3324V34.7697C148.048 33.956 148.075 32.7436 148.075 30.6199H149.426C149.426 33.1938 149.29 34.8917 148.251 35.9332C148.03 35.5027 147.733 35.1174 147.373 34.7968V38H145.574V32.9687C145.4 33.1721 145.21 33.3647 145.039 33.5437C144.747 32.8929 144.4 32.2694 144 31.6804C145.081 30.6384 145.928 29.373 146.484 27.97L147.973 28.4636V28.168H149.649V25H151.351V28.168H153.271V29.3722H157L156.997 31.1325ZM148.131 25.6428C147.365 26.9494 146.393 28.1195 145.253 29.1064C144.961 28.5819 144.626 28.0829 144.252 27.6146C145.12 26.8949 145.838 26.0058 146.361 25L148.131 25.6428ZM152.334 27.9564C152.073 27.3466 151.761 26.7604 151.402 26.2043L152.577 25.5886C152.945 26.0991 153.27 26.6388 153.552 27.2024V25.9981H156.78V27.7367H153.552V27.2729L152.334 27.9564ZM153.105 35.6105C151.863 35.6105 151.632 35.1304 151.632 33.7607V30.6253H152.998V33.7905C152.998 34.1594 152.998 34.2679 153.065 34.2679H153.255C153.406 34.2672 153.557 34.2397 153.699 34.1865C153.726 34.5418 153.779 35.2009 153.822 35.5156C153.638 35.5895 153.44 35.6219 153.241 35.6105H153.105Z" fill="black"/>
<path d="M172.164 32.3533C171.345 32.9073 170.488 33.4015 169.599 33.8321H174.594V35.5226H169.487V36.1521C169.487 37.0557 169.271 37.4952 168.578 37.753C167.884 38.0108 166.992 37.9999 165.89 37.9999C165.741 37.3965 165.512 36.8161 165.21 36.2742C165.93 36.3149 166.973 36.3149 167.218 36.3149C167.462 36.3149 167.559 36.2606 167.559 36.0843V35.5226H162.452V33.8213H167.559V33.1918C167.786 33.1034 168.007 33.0028 168.223 32.8906H164.903V31.8052C164.358 32.104 163.791 32.3607 163.207 32.5731C162.859 32.0293 162.454 31.5245 162 31.0672C163.273 30.7136 164.478 30.1488 165.567 29.3957H162.473V27.7378H167.495V27.1626C166.207 27.244 164.917 27.2874 163.696 27.301C163.62 26.7628 163.474 26.2372 163.261 25.738C166.315 25.6973 169.761 25.4667 171.755 25L173.368 26.3811C172.07 26.6695 170.756 26.8806 169.433 27.0134V27.7378H174.575V29.3957H171.887C172.974 30.0109 174.015 30.7065 175 31.4769L173.696 32.8336C172.788 32.0196 170.984 30.7931 169.435 29.8489V31.0672H167.495V29.9031C166.927 30.4495 166.31 30.9401 165.651 31.3684H170.575L170.984 31.2734L172.164 32.3533Z" fill="black"/>
<path d="M93 6H95.4646L97.9695 10.7923L98.9564 13.0101H99.0235C98.8429 11.7856 98.7345 10.5517 98.699 9.3147V6H101V16H98.5381L96.0466 11.1757L95.057 8.98456H94.99C95.0999 10.1001 95.301 11.4712 95.301 12.68V16H93V6Z" fill="black"/>
<path d="M105.76 7.98882H103V6H111V7.98882H108.226V16H105.779L105.76 7.98882Z" fill="black"/>
<path d="M113 11.1973V6H115.376V11.4481C115.376 13.3086 115.936 13.9671 117.029 13.9671C118.122 13.9671 118.706 13.3086 118.706 11.4481V6H121V11.1973C121 14.508 119.68 16 117.04 16C114.399 16 113 14.508 113 11.1973Z" fill="black"/>
<path d="M129.584 13.7023H126.328L125.693 16H123L126.419 6H129.584L133 16H130.219L129.584 13.7023ZM129.08 11.8387L128.845 10.992C128.552 9.99894 128.259 8.80085 127.966 7.78115H127.905C127.641 8.82748 127.345 9.99894 127.064 10.992L126.827 11.8387H129.08Z" fill="black"/>
<path d="M135 6H142V7.98882H137.634V10.18H141.367V12.1821H137.634V16H135.009L135 6Z" fill="black"/>
<path d="M144.119 14.6539C146.602 12.4245 148.266 10.6445 148.266 9.21746C148.266 8.32096 147.762 7.8322 146.974 7.8322C146.293 7.8322 145.759 8.28176 145.294 8.78359L144 7.51594C144.975 6.49921 145.881 6 147.294 6C149.214 6 150.548 7.21275 150.548 9.08678C150.548 10.7752 149.082 12.6362 147.561 14.1521C148.096 14.0782 148.635 14.0346 149.175 14.0214H151V16H144.132L144.119 14.6539Z" fill="black"/>
<path d="M152 13.4184C152 12.2137 152.721 11.4611 153.658 10.9807V10.9165C152.869 10.3591 152.339 9.61932 152.339 8.60468C152.339 6.99666 153.685 6 155.545 6C157.368 6 158.576 7.0095 158.576 8.56871C158.56 8.99716 158.436 9.41556 158.214 9.78818C157.992 10.1608 157.678 10.4765 157.3 10.7085V10.7727C157.82 11.0008 158.258 11.3695 158.56 11.833C158.862 12.2965 159.014 12.8344 158.999 13.3799C158.999 14.8723 157.586 16 155.464 16C153.481 16 152 14.9494 152 13.4184ZM156.757 13.29C156.757 12.4449 155.981 12.0827 154.746 11.5767C154.31 11.9933 154.065 12.5576 154.065 13.1462C154.065 13.9373 154.732 14.392 155.521 14.392C156.226 14.392 156.765 14.0555 156.765 13.29H156.757ZM156.622 8.72541C156.622 8.02415 156.199 7.58233 155.478 7.58233C155.339 7.57592 155.2 7.59805 155.07 7.64722C154.941 7.69639 154.824 7.77145 154.728 7.86736C154.631 7.96328 154.558 8.0778 154.511 8.20321C154.465 8.32863 154.448 8.46202 154.46 8.5944C154.46 9.36501 155.085 9.77601 156.076 10.151C156.428 9.75234 156.622 9.24729 156.622 8.72541Z" fill="black"/>
<path d="M161.947 13.2317V10.5436H161V8.92492L162.069 8.83985L162.312 7H164.13V8.83985H165.778V10.5412H164.13V13.2147C164.13 13.9876 164.5 14.2938 165.017 14.2938C165.234 14.2815 165.448 14.2406 165.654 14.1723L166 15.7424C165.488 15.91 164.952 15.9969 164.413 16C162.658 15.9927 161.947 14.8868 161.947 13.2317Z" fill="black"/>
<path d="M168.008 5H170.389V7.64295L170.28 9.03397C170.896 8.38155 171.736 8.00089 172.621 7.97297C174.289 7.97297 175 9.19762 175 11.1532V16H172.603V11.456C172.603 10.3841 172.318 10.065 171.713 10.065C171.18 10.065 170.853 10.3132 170.381 10.7687V16H168L168.008 5Z" fill="black"/>
</svg>
