<svg width="149" height="24" viewBox="0 0 149 24" fill="none" xmlns="http://www.w3.org/2000/svg">
<path d="M22.252 7.544C22.456 7.064 22.684 6.296 22.9 5.672L22.372 5.48C22.264 6.032 22.036 6.872 21.856 7.388L22.252 7.544ZM19.936 5.636C20.14 6.212 20.284 6.968 20.308 7.46L20.788 7.328C20.752 6.848 20.596 6.092 20.38 5.516L19.936 5.636ZM19.768 5.048H21.064V7.928H19.768V5.048ZM23.056 7.928H21.676V5.048H23.056V7.928ZM18.772 11.924C20.152 11.852 22.108 11.732 24.016 11.588L24.04 10.868C23.272 10.916 22.504 10.964 21.772 11V10.112H23.848V9.404H21.772V8.576H23.776V4.4H19.072V8.576H20.968V9.404H18.988V10.112H20.968V11.048C20.116 11.084 19.348 11.132 18.724 11.156L18.772 11.924ZM19.132 14.912C19.66 14.384 19.84 13.46 19.96 12.572L19.324 12.404C19.228 13.232 19 14.096 18.532 14.588L19.132 14.912ZM20.344 12.44C20.512 13.112 20.632 13.964 20.632 14.528L21.244 14.444C21.244 13.892 21.112 13.028 20.92 12.38L20.344 12.44ZM21.484 12.38C21.748 12.992 22 13.784 22.06 14.312L22.672 14.18C22.588 13.652 22.324 12.86 22.048 12.26L21.484 12.38ZM22.624 12.224C23.02 12.776 23.44 13.544 23.608 14.048L24.208 13.784C24.028 13.292 23.596 12.548 23.176 11.996L22.624 12.224ZM28.276 13.532H25.252V10.448H28.276V13.532ZM29.596 7.4V6.56H27.04V3.98H26.164V9.62H24.436V14.9H25.252V14.336H28.276V14.852H29.116V9.62H27.04V7.4H29.596ZM33.112 7.148V6.716H34.264V7.148H33.112ZM33.112 5.9H34.264V6.296H33.112V5.9ZM36.196 5.9V6.296H34.984V5.9H36.196ZM36.196 7.148H34.984V6.716H36.196V7.148ZM34.264 9.236H33.148V8.6H32.488V9.764H36.856V8.6H36.172V9.236H34.984V8.456H37.3V7.94H34.984V7.556H36.844V6.416C37.012 6.536 37.204 6.764 37.288 6.908C38.548 6.44 38.848 5.732 38.848 5.06V5H40.396V5.564C40.396 6.308 40.552 6.596 41.284 6.596H42.136C42.364 6.596 42.616 6.596 42.748 6.536C42.712 6.356 42.688 6.068 42.676 5.864C42.532 5.912 42.28 5.912 42.124 5.912H41.368C41.2 5.912 41.176 5.84 41.176 5.576V4.34H38.092V5.024C38.092 5.504 37.9 5.948 36.844 6.308V5.492H34.984V5.084H37.228V4.556H34.984V3.968H34.264V4.556H32.092V5.084H34.264V5.492H32.476V7.556H34.264V7.94H31.9V8.456H34.264V9.236ZM37.732 11.924H41.584V11.312H37.732V10.652C39.268 10.58 40.708 10.46 41.8 10.292L41.176 9.8C39.256 10.1 35.44 10.22 32.404 10.172C32.464 10.328 32.536 10.568 32.536 10.736C33.904 10.76 35.404 10.748 36.856 10.7V11.312H32.812V11.924H36.856V12.548H31.804V13.184H36.856V14.024C36.856 14.192 36.784 14.24 36.604 14.252C36.412 14.264 35.716 14.264 35.02 14.24C35.128 14.444 35.248 14.72 35.308 14.924C36.268 14.936 36.868 14.936 37.252 14.816C37.612 14.696 37.732 14.516 37.732 14.048V13.184H42.796V12.548H37.732V11.924ZM40.84 7.508C40.576 7.88 40.204 8.192 39.772 8.444C39.316 8.192 38.932 7.868 38.68 7.508H40.84ZM41.452 6.86L41.296 6.896H37.792V7.508H38.5L37.984 7.676C38.272 8.096 38.644 8.468 39.088 8.792C38.452 9.044 37.732 9.224 36.976 9.332C37.12 9.476 37.252 9.752 37.324 9.932C38.2 9.776 39.028 9.548 39.748 9.188C40.504 9.572 41.428 9.86 42.412 10.016C42.508 9.812 42.7 9.524 42.868 9.368C41.98 9.272 41.14 9.068 40.432 8.78C41.068 8.336 41.56 7.772 41.872 7.028L41.452 6.86ZM53.704 10.796H48.496V9.968H53.704V10.796ZM48.496 13.76V12.872H53.704V13.76H48.496ZM53.704 12.248H48.496V11.408H53.704V12.248ZM55.756 8.432V7.688H49.468C49.612 7.4 49.744 7.1 49.864 6.812H55.06V6.092H50.116C50.212 5.792 50.308 5.504 50.392 5.204C52.108 5.108 53.74 4.952 54.94 4.7L54.376 4.052C52.48 4.436 48.856 4.628 45.952 4.652C46.036 4.844 46.12 5.132 46.132 5.336C47.164 5.336 48.292 5.312 49.408 5.252C49.336 5.54 49.252 5.816 49.156 6.092H46.12V6.812H48.892C48.784 7.1 48.64 7.4 48.496 7.688H45.244V8.432H48.076C47.332 9.68 46.3 10.796 44.956 11.576C45.124 11.732 45.388 12.056 45.508 12.26C46.324 11.768 47.032 11.168 47.644 10.496V14.948H48.496V14.48H53.704V14.948H54.58V9.26H48.604C48.784 8.996 48.94 8.708 49.096 8.432H55.756ZM60.46 10.28V9.068H63.316V9.548C63.316 9.788 63.316 10.04 63.292 10.28H60.46ZM60.46 7.16H63.316V8.36H60.46V7.16ZM67.252 7.16V8.36H64.228V7.16H67.252ZM67.252 10.28H64.204C64.216 10.052 64.228 9.8 64.228 9.56V9.068H67.252V10.28ZM68.128 11.024V6.416H64.228V5.408H68.884V4.604H58.516V5.408H63.316V6.416H59.608V11.024H63.172C63.028 11.6 62.752 12.14 62.2 12.608C61.636 12.236 61.156 11.744 60.748 11.12L60.004 11.42C60.412 12.116 60.904 12.668 61.48 13.112C60.748 13.532 59.728 13.868 58.3 14.144C58.492 14.348 58.732 14.72 58.828 14.924C60.388 14.6 61.504 14.156 62.308 13.628C63.94 14.492 66.124 14.756 68.896 14.876C68.944 14.588 69.112 14.216 69.268 14C66.604 13.928 64.54 13.748 63.028 13.064C63.628 12.452 63.952 11.768 64.096 11.024H68.128ZM79.048 5.804C78.46 6.548 77.62 7.208 76.672 7.748C76.252 7.292 75.58 6.764 74.956 6.344C75.208 6.164 75.448 5.996 75.664 5.804H79.048ZM79.84 4.964L79.684 5H76.576C76.864 4.712 77.128 4.436 77.356 4.148L76.384 3.944C75.616 4.928 74.188 6.092 72.28 6.896C72.472 7.04 72.748 7.316 72.88 7.52C73.372 7.28 73.852 7.04 74.284 6.776C74.872 7.196 75.496 7.724 75.892 8.144C74.62 8.756 73.216 9.188 71.884 9.428C72.04 9.62 72.232 9.992 72.304 10.232C75.412 9.584 78.904 7.976 80.416 5.324L79.84 4.964ZM80.86 10.016C80.248 10.976 79.36 11.744 78.28 12.344C77.836 11.888 77.14 11.288 76.504 10.832C76.9 10.568 77.284 10.304 77.62 10.016H80.86ZM81.592 9.152L81.412 9.2H78.52C78.82 8.912 79.072 8.612 79.312 8.312L78.328 8.096C77.452 9.272 75.748 10.604 73.324 11.48C73.528 11.624 73.78 11.948 73.888 12.14C74.572 11.876 75.196 11.576 75.772 11.264C76.384 11.732 77.032 12.296 77.452 12.752C75.796 13.484 73.84 13.892 71.848 14.084C72.004 14.3 72.148 14.696 72.208 14.948C76.432 14.444 80.524 13.052 82.192 9.524L81.592 9.152Z" fill="#7A7979"/>
<path d="M96 12H136L124.116 4" stroke="#7A7979" stroke-width="0.6"/>
</svg>
