<svg xmlns="http://www.w3.org/2000/svg" xmlns:xlink="http://www.w3.org/1999/xlink" viewBox="0 0 380 117"><defs><style>.cls-1{fill:url(#未命名漸層_46);}.cls-2{fill:none;stroke:#fff;stroke-miterlimit:10;stroke-width:0.5px;}.cls-3{fill:#fff;}</style><linearGradient id="未命名漸層_46" x1="41" y1="53" x2="274" y2="53" gradientUnits="userSpaceOnUse"><stop offset="0" stop-color="#243c95"/><stop offset="1" stop-color="#050c26"/></linearGradient></defs><g id="btn"><polygon class="cls-1" points="274 48 222 27 66 29 41 48 65 76 261 79 274 48"/><line class="cls-2" x1="65.84" y1="61.59" x2="92.19" y2="61.59"/><path class="cls-3" d="M116.59,57c0,.7-.17,1.08-.65,1.29a8.58,8.58,0,0,1-2.49.21,4.33,4.33,0,0,0-.42-1.24c.86,0,1.76,0,2,0s.34-.08.34-.3v-7h-8.12v8.55h-1.2V48.7h3.55a16.69,16.69,0,0,0,.76-2.22l1.53.25a21.14,21.14,0,0,1-1,2h5.64Zm-6.72-1.22v.91h-1.1V51.4h5v4.33Zm0-3.27v2.19h2.82V52.46Z"/><path class="cls-3" d="M122.26,46.91A21.11,21.11,0,0,1,121,49.64v8.8h-1.15v-7a13.1,13.1,0,0,1-1.12,1.36,7.59,7.59,0,0,0-.66-1.22,14.46,14.46,0,0,0,3.08-5ZM126.82,50v7c0,.63-.13,1-.52,1.19a4.44,4.44,0,0,1-1.8.23,4.39,4.39,0,0,0-.43-1.21h1.32c.17,0,.23,0,.23-.21V50h-1.76a12.85,12.85,0,0,1-1.24,2.14,9.87,9.87,0,0,0-1-.8,12.34,12.34,0,0,0,2.16-4.81l1.19.26a18.31,18.31,0,0,1-.66,2.1h4.92l.19,0,.85.17c-.17,1-.4,2.13-.57,2.86l-1-.2c.09-.44.18-1,.26-1.68Zm-2.14,2.32a12.79,12.79,0,0,1-1.83,4.38,8.18,8.18,0,0,0-1-.65,10,10,0,0,0,1.68-4Zm3.95-.34a16.75,16.75,0,0,1,1.53,4.27L129,56.7a17.22,17.22,0,0,0-1.45-4.33Z"/><path class="cls-3" d="M142.54,51A28.77,28.77,0,0,1,140,53.57a8.78,8.78,0,0,0,3.41,2.71,5,5,0,0,0-.87,1.08,10.71,10.71,0,0,1-4.58-4.92v4.45c0,.78-.18,1.14-.65,1.34a6.91,6.91,0,0,1-2.41.24,5.77,5.77,0,0,0-.43-1.27c.84,0,1.67,0,1.93,0s.32-.08.32-.32V54.4c-1.58,1-3.25,2-4.54,2.77l-.78-1.09c1.28-.64,3.4-1.83,5.32-2.94v-3.4h-5V48.57h5v-2h1.24v2H141a15.65,15.65,0,0,0-2-1.26l.71-.77A16.23,16.23,0,0,1,142.05,48l-.55.62H143v1.17h-5.1v.13a13.13,13.13,0,0,0,1.39,2.81,16.24,16.24,0,0,0,2.17-2.44Zm-8.18,2.51a11.88,11.88,0,0,0-2.1-2.46l.91-.65a11.62,11.62,0,0,1,2.18,2.4Z"/><path class="cls-3" d="M150,55.77a12.32,12.32,0,0,0-1.66-1.56v2.86c0,.62-.16.94-.55,1.1a4.81,4.81,0,0,1-1.92.21,4.09,4.09,0,0,0-.36-1.05h1.37c.19,0,.27-.08.27-.27V54.64c-.79.61-1.6,1.23-2.27,1.73l-.58-1c.73-.49,1.81-1.28,2.85-2.09V49.82h-2.66V48.7h2.66V46.49h1.19V48.7h2.48v1.12h-2.48V52a17.18,17.18,0,0,0,1.23-1.66l1,.43a18.83,18.83,0,0,1-2,2.31A16.43,16.43,0,0,1,150.85,55Zm-4.36-5.22A9.24,9.24,0,0,1,147,52.68l-.95.49A10.38,10.38,0,0,0,144.76,51Zm4.24-1.92a7.41,7.41,0,0,0-1.24-1.54l.83-.49a6.32,6.32,0,0,1,1.29,1.45Zm5.64,1.45a15.55,15.55,0,0,1-1.38,5,6.77,6.77,0,0,0,2.25,2.32,4.58,4.58,0,0,0-.87,1.07,7.26,7.26,0,0,1-2.08-2.22,6.78,6.78,0,0,1-2.79,2.24,4.11,4.11,0,0,0-.88-1,6.16,6.16,0,0,0,3-2.43,16.73,16.73,0,0,1-1-2.92,7.91,7.91,0,0,1-.68,1.12,6.37,6.37,0,0,0-.92-.87,12.71,12.71,0,0,0,1.93-5.85l1.19.18a20.08,20.08,0,0,1-.43,2.26h3.44v1.13Zm-3,0a4.38,4.38,0,0,1-.13.43,16.28,16.28,0,0,0,1,3.25,13.55,13.55,0,0,0,.95-3.68Z"/><path class="cls-3" d="M158.68,54.28c1-.37,1.59-1,1.66-1.75h-.19a1,1,0,0,1-1.09-1,1,1,0,0,1,1.11-1c.82,0,1.25.64,1.25,1.63a3.16,3.16,0,0,1-2.4,3Z"/><path class="cls-3" d="M167.94,56.09h-2.51v1h-1.06V47.45h3.57Zm-2.51-7.53v2.6h1.44v-2.6ZM166.87,55V52.26h-1.44V55Zm8.95-4.15V51.9H168.3V50.84h1.75a12.87,12.87,0,0,0-.51-1.56l1-.28a12.81,12.81,0,0,1,.6,1.73l-.34.11h2a13.32,13.32,0,0,0,.6-1.82l1.25.23L174,50.84Zm-.4-1.86h-6.75v-1h2.89c-.12-.38-.28-.82-.43-1.17l1.12-.29a9.54,9.54,0,0,1,.57,1.46h2.6Zm-6.31,3.76h5.95v5.67H173.9V57.9h-3.68v.52h-1.11Zm1.11,1v1.09h3.68V53.73Zm3.68,3.16V55.75h-3.68v1.14Z"/><path class="cls-3" d="M180.51,53.26a13.14,13.14,0,0,1-2.55,4.1,8.07,8.07,0,0,0-1.14-.76,9.44,9.44,0,0,0,2.41-3.68Zm3-1.56v6.7h-1.28V51.7h-5V50.5h11.4v1.2Zm4-3.11h-9.08v-1.2h9.08Zm-1,4.25a17.07,17.07,0,0,1,2.3,3.9l-1.26.55a15.56,15.56,0,0,0-2.17-3.95Z"/><path class="cls-3" d="M201.6,55.46c-.54.29-1.15.62-1.68.87a5.19,5.19,0,0,0,2,1.06,3.55,3.55,0,0,0-.7.93,5.76,5.76,0,0,1-3.62-3.57,8.57,8.57,0,0,1-1.43,1v1.33l2-.43a4.3,4.3,0,0,0,0,.88,14.45,14.45,0,0,0-3,.86h0a3.34,3.34,0,0,0-.41-.85.84.84,0,0,0,.47-.83V56.3a10.08,10.08,0,0,1-1.26.51,4.19,4.19,0,0,0-.57-.74c-1.19.36-2.38.71-3.37,1L189.78,56c.42-.09.89-.22,1.41-.36V52.14h-1.13V51.08h1.13V48.4H190V47.32h3.48V48.4h-1.19v2.68h1v1.06h-1V55.3c.37-.1.74-.22,1.11-.33l.13.94a10.64,10.64,0,0,0,2.94-1.29h-1.76V51.88h6.26v2.74h-2.28a4.48,4.48,0,0,0,.68,1.08,14.43,14.43,0,0,0,1.47-1Zm.07-4.18h-7.82v-1h7.82Zm-.41-1.52h-6.9V47h6.9Zm-4.87-1.95h-1v1.1h1Zm-.65,5.94h4v-1h-4Zm2.55-5.94h-1.07v1.1h1.07Zm1.93,0h-1.11v1.1h1.11Z"/><path class="cls-3" d="M207.12,55.27c-1.33.55-2.75,1.12-3.87,1.55l-.4-1.23,1.56-.52v-4.3h-1.35V49.63h1.35v-3h1.19v3h1.18v1.14H205.6v3.87l1.27-.47Zm6.1,2.06a1.25,1.25,0,0,0,.38,0,.38.38,0,0,0,.18-.27,7,7,0,0,0,.06-1,3.31,3.31,0,0,0,.95.5,4.71,4.71,0,0,1-.16,1.24.91.91,0,0,1-.51.44,2.53,2.53,0,0,1-.8.12h-.85a1.59,1.59,0,0,1-.93-.27c-.23-.19-.32-.42-.32-1.15V55.09h-1.06c-.23,1.8-.88,2.81-3.29,3.41a2.79,2.79,0,0,0-.62-1c2.07-.4,2.57-1.11,2.76-2.46h-1.23V51.32h6v3.77h-1.45v1.84c0,.18,0,.29.09.33a.38.38,0,0,0,.28.07Zm1.24-6.57h-7.25v-1h1.72c-.09-.32-.22-.74-.35-1.07l1-.23a6.64,6.64,0,0,1,.44,1.24l-.24.06h1.83a12.39,12.39,0,0,0,.47-1.27l1.11.22c-.19.37-.34.73-.51,1.05h1.81Zm-.34-2.38h-6.53v-1h2.68c-.09-.26-.19-.52-.29-.74l1.12-.23a6.93,6.93,0,0,1,.42,1h2.6Zm-5.23,4.43h3.74v-.68h-3.74Zm0,1.49h3.74v-.73h-3.74Z"/><path class="cls-3" d="M220.67,49.26c-.22.45-.44.89-.69,1.3h6.15V57c0,.65-.13,1-.6,1.2a6.51,6.51,0,0,1-2.26.2,4.5,4.5,0,0,0-.38-1.18c.77,0,1.55,0,1.77,0s.29-.07.29-.26V55.91h-5.24a4.74,4.74,0,0,1-1.37,2.63,4.66,4.66,0,0,0-.87-.95A4.62,4.62,0,0,0,218.66,54V52.42a9.75,9.75,0,0,1-1.88,1.75,7,7,0,0,0-.79-.94,10.58,10.58,0,0,0,3.34-4h-3.06V48.13h3.57a13.37,13.37,0,0,0,.54-1.62l1.24.28c-.14.44-.29.9-.47,1.34h6.48v1.13ZM225,54.9V53.76h-5.08V54c0,.28,0,.59,0,.91Zm0-3.27h-5.08v1.12H225Z"/><path class="cls-3" d="M231.88,51.15v1.24c0,1.8-.33,4.38-2.06,6a4.18,4.18,0,0,0-.91-.82,7,7,0,0,0,1.77-5.26V50.5c-.29.23-.59.45-.91.68a3.55,3.55,0,0,0-.81-1,9.83,9.83,0,0,0,3.5-3.78l1.33.26c-.18.33-.38.67-.59,1h4.18l.2-.06.88.63-1.18,1.79h3.47v1.09Zm.53-2.38a12.11,12.11,0,0,1-1.21,1.29H236c.22-.38.48-.86.7-1.29Zm6.23,8.4c.82,0,1-.26,1.06-1.73a3.3,3.3,0,0,0,1.1.46c-.18,1.88-.54,2.38-2.09,2.38h-3.4c-1.74,0-2.26-.34-2.26-1.73V52.24h5.88s0,.29,0,.44c-.1,1.8-.23,2.58-.52,2.91a1.26,1.26,0,0,1-.87.35,12,12,0,0,1-1.72,0,2.61,2.61,0,0,0-.34-1c.64.05,1.25.06,1.49.06s.35,0,.44-.13.23-.57.31-1.56h-3.47v3.26c0,.53.17.63,1.14.63Z"/><path class="cls-3" d="M245.05,53.6a12.41,12.41,0,0,0-.63-1.42v6.27h-1V52.81a14.3,14.3,0,0,1-1.06,2.91,5.94,5.94,0,0,0-.51-1.21,15,15,0,0,0,1.51-4.43h-1.2V49h1.26V46.52h1V49h1v1.12h-1v.72c.3.43,1,1.64,1.19,2Zm8,.92a6.94,6.94,0,0,1-1.51,2,1.64,1.64,0,0,0,1.12.72c.25,0,.41-.44.51-1.36a3.07,3.07,0,0,0,.78.61c-.27,1.52-.73,2-1.27,1.94a2.6,2.6,0,0,1-2-1.23,9.44,9.44,0,0,1-2.17,1.18,4.65,4.65,0,0,0-.64-.78,8.34,8.34,0,0,0,2.32-1.27,10.91,10.91,0,0,1-.69-2.25h-2c0,.13,0,.28,0,.41A16.14,16.14,0,0,1,249.3,56l-.74.73a11.64,11.64,0,0,0-1.16-1.11,4.87,4.87,0,0,1-1.84,2.84,3.9,3.9,0,0,0-.81-.71,4.32,4.32,0,0,0,1.82-3.65h-.91v-1h3.73a54.57,54.57,0,0,1-.54-6.55h1a45.64,45.64,0,0,0,.56,6.55H252a10.28,10.28,0,0,0-.93-.7l.53-.48a4.22,4.22,0,0,0-.92.23c-.06-.18-.2-.65-.3-.88.21,0,.4-.26.64-.59.12-.15.4-.56.7-1a3.21,3.21,0,0,0-1.19.25,5.53,5.53,0,0,0-.3-.86c.16,0,.3-.21.46-.44a9.74,9.74,0,0,0,.86-2l.9.24A13,13,0,0,1,251.36,49l.77-.08a6.78,6.78,0,0,0,.41-.86l.9.33a17.76,17.76,0,0,1-1.82,2.82l1-.13c-.09-.22-.18-.47-.26-.67l.71-.2a14.15,14.15,0,0,1,.67,1.9l-.75.26c0-.16-.09-.35-.15-.56l-1.17.18a8.31,8.31,0,0,1,1.2.89l-.34.32h1.06v1h-3a9.18,9.18,0,0,0,.47,1.5,6.21,6.21,0,0,0,1-1.46Zm-4.84-2c0-.14,0-.31-.09-.49a8,8,0,0,0-2.21.41,6,6,0,0,0-.3-.87,1.31,1.31,0,0,0,.66-.58,10.94,10.94,0,0,0,.73-1.07,3.85,3.85,0,0,0-1.22.26c-.05-.19-.2-.64-.29-.86a.85.85,0,0,0,.48-.47,8.92,8.92,0,0,0,1-2.17l.9.26a14.1,14.1,0,0,1-1.21,2.26l.81-.07c.15-.28.3-.56.43-.85l.87.33a20.54,20.54,0,0,1-1.89,2.81l1-.13c-.07-.25-.17-.5-.24-.72l.73-.19a11.1,11.1,0,0,1,.62,1.88Z"/><path class="cls-3" d="M68.57,44h3c2.07,0,3.5.69,3.5,2.48a2.22,2.22,0,0,1-1.5,2.21v.07a2.34,2.34,0,0,1,2.08,2.42c0,2-1.58,3-3.86,3H68.57Zm2.8,4.33c1.75,0,2.45-.65,2.45-1.68,0-1.19-.81-1.64-2.4-1.64H69.86v3.32Zm.26,4.81c1.75,0,2.78-.63,2.78-2s-1-1.83-2.78-1.83H69.86v3.83Z"/></g></svg>