<svg xmlns="http://www.w3.org/2000/svg" xmlns:xlink="http://www.w3.org/1999/xlink" viewBox="0 0 356 103"><defs><style>.cls-1{fill:url(#未命名漸層_46);}.cls-2{fill:#fff;}.cls-3{fill:none;stroke:#fff;stroke-miterlimit:10;stroke-width:0.5px;}</style><linearGradient id="未命名漸層_46" x1="178.17" y1="86" x2="178.17" y2="17" gradientUnits="userSpaceOnUse"><stop offset="0" stop-color="#243c95"/><stop offset="1" stop-color="#050c26"/></linearGradient></defs><g id="btn"><polygon class="cls-1" points="44 40 117.79 17 294.13 29.46 312.33 55.33 291.25 82.17 121.63 83.13 51.67 86 44 40"/><path class="cls-2" d="M96.14,57.54h-4L91.06,60.9H89.65l3.73-11h1.54l3.73,11H97.18Zm-.35-1.1-.52-1.68c-.41-1.24-.75-2.44-1.11-3.72H94.1c-.34,1.29-.7,2.48-1.09,3.72l-.54,1.68Z"/><line class="cls-3" x1="87.93" y1="68.14" x2="114.15" y2="68.14"/><path class="cls-2" d="M129.57,53.48a3.33,3.33,0,0,1-2.28,2.63,3.84,3.84,0,0,0-.73-.85,2.42,2.42,0,0,0,1.86-1.78h-1.94v-1h2V51.12h1.13v1.37h1V51.12h1.09v1.37h1.41V51.12h1.14v1.37h1v-1.4h1.12v1.4h1.94v1H136.4v.81c0,.36,0,.48.25.48h1a3.8,3.8,0,0,0,.7-.06c0,.28.06.7.1,1a3.4,3.4,0,0,1-.78.07h-1.07c-1.07,0-1.28-.44-1.28-1.49v-.78h-1v2.14h-3.64V53.48Zm-2.86,2.74h11.47v2.71H137V57.24h-9.1v1.69h-1.16Zm10.2,5.11c0,.57-.13.91-.58,1.07a6.35,6.35,0,0,1-2.1.18,3.91,3.91,0,0,0-.4-1.08c.69,0,1.41,0,1.58,0s.26-.05.26-.21V59.46H133v3.86h-1.25V59.46h-2.48v3.09H128V58.46h3.69v-1H133v1h3.95Zm-5.21-7.85v1.19h1.41V53.48Z"/><path class="cls-2" d="M141.17,55.33a10.68,10.68,0,0,1-.89,1,5.18,5.18,0,0,0-.7-1.11,11.58,11.58,0,0,0,3-4.36l.95.58c-.1.23-.21.46-.32.68a19.16,19.16,0,0,1,2.27,2.55l-.63,1a20.19,20.19,0,0,0-2.13-2.55A16.9,16.9,0,0,1,141.41,55h2.88v1.07h-3.12Zm4.16,2.32a15.67,15.67,0,0,1-2.08,3.72,10.41,10.41,0,0,1,.94,1.06l-.83.78a18.46,18.46,0,0,0-2.74-2.82l.77-.69c.32.24.67.55,1,.88a12.7,12.7,0,0,0,1.44-2.31H140.2v-1h4.18l.19-.07Zm2.95,3.89a9.43,9.43,0,0,1-2.74,1.82,7.11,7.11,0,0,0-.82-.83,7.89,7.89,0,0,0,2.52-1.66Zm-.46-7.83c.07-.35.15-.76.19-1.11h-2.63V51.53H152V52.6h-2.57c-.12.38-.23.77-.35,1.11h2.56v7h-5.74v-7Zm2.6,1H147v1.09h3.45Zm0,2H147v1.12h3.45Zm0,2H147v1.13h3.45Zm-.37,2.3a15.85,15.85,0,0,1,2.17,1.68l-1,.72a14.45,14.45,0,0,0-2.12-1.78Z"/><path class="cls-2" d="M157.28,51.36a20.85,20.85,0,0,1-1.34,2.83v9.13h-1.18V56.06a13.07,13.07,0,0,1-1.17,1.41,8.09,8.09,0,0,0-.68-1.26A15.05,15.05,0,0,0,156.1,51ZM162,54.61v7.26c0,.65-.13,1-.54,1.23a4.5,4.5,0,0,1-1.86.24,4.38,4.38,0,0,0-.45-1.25h1.37c.17,0,.24,0,.24-.22V54.61h-1.82a13.41,13.41,0,0,1-1.3,2.22,8.38,8.38,0,0,0-1-.83,12.69,12.69,0,0,0,2.24-5l1.24.27a19.58,19.58,0,0,1-.69,2.17h5.1l.21,0,.87.18c-.17,1-.42,2.21-.59,3l-1.07-.21c.1-.46.19-1.09.27-1.74ZM159.79,57a13.53,13.53,0,0,1-1.9,4.55,7.72,7.72,0,0,0-1.07-.67,10.45,10.45,0,0,0,1.74-4.1Zm4.09-.35a17.14,17.14,0,0,1,1.59,4.43l-1.2.43A17.72,17.72,0,0,0,162.76,57Z"/><path class="cls-2" d="M178.68,59.81h-3V62c0,.65-.14,1-.6,1.17a6.64,6.64,0,0,1-2.16.2,4.84,4.84,0,0,0-.43-1.15c.73,0,1.46,0,1.66,0s.28-.06.28-.24V59.81h0a16.19,16.19,0,0,1-6.82,3,4.73,4.73,0,0,0-.74-1,18.08,18.08,0,0,0,5.91-2h-4.4c.23-.69.49-1.72.68-2.61h-1v-1h10.23v1H175.7v1.54h3Zm-10.22-5.29h-1.23V52.26h5.23c-.11-.35-.26-.75-.4-1.08l1.27-.32a9.1,9.1,0,0,1,.54,1.4h4.74V54.5h-1.28V53.33h-2.59v1c0,.31,0,.44.38.44h1.71a5.18,5.18,0,0,0,1.08-.09,9.26,9.26,0,0,0,.11,1,4.93,4.93,0,0,1-1.12.1h-2.06c-1.12,0-1.36-.48-1.36-1.42v-1h-1.31c-.31,1.59-1.23,2.38-4.28,2.75a3,3,0,0,0-.56-.95c2.59-.25,3.36-.72,3.6-1.8h-2.47Zm1.84,2.68c-.14.5-.27,1-.42,1.54h4.57V57.2Z"/><path class="cls-2" d="M183.93,58.49a13.46,13.46,0,0,0-.78-1.62v6.45H182V57.73a12.58,12.58,0,0,1-1.26,3,7.55,7.55,0,0,0-.6-1.25,14.76,14.76,0,0,0,1.82-4.83h-1.47V53.49H182V51h1.17v2.54h1.45v1.16h-1.45v.65c.41.55,1.31,1.94,1.53,2.31Zm7.72-.41a7.33,7.33,0,0,1-2.18,3.08,10.1,10.1,0,0,0,3.17,1.06,5.64,5.64,0,0,0-.7,1.07,10.21,10.21,0,0,1-3.47-1.42,12.54,12.54,0,0,1-3.82,1.47,4.59,4.59,0,0,0-.61-1,11.16,11.16,0,0,0,3.46-1.19A6.33,6.33,0,0,1,186.43,60a8.67,8.67,0,0,1-1,.75,5.22,5.22,0,0,0-.81-.82,6.94,6.94,0,0,0,1.17-.84,8.06,8.06,0,0,1-.44-1l.88-.49c.09.21.19.43.31.65a5.7,5.7,0,0,0,.89-1.62l1.1.23a7.69,7.69,0,0,1-.4.87h2.48l.23-.05Zm-3.75-3.62a3.39,3.39,0,0,1-2.78,3,2.65,2.65,0,0,0-.66-.89c1.55-.4,2.07-1.06,2.27-2.06a5.38,5.38,0,0,0-1.43.23,9,9,0,0,0-.38-1.1,1.83,1.83,0,0,0,.81-.51,12.08,12.08,0,0,0,2-2.35l1.21.4a16.86,16.86,0,0,1-2.06,2.22l3.32-.2c-.31-.39-.62-.8-.91-1.13l.95-.49c.75.85,1.73,2,2.23,2.75l-1,.6-.51-.76-.93.07v1.33c0,.31,0,.42.25.42h1.27a3.56,3.56,0,0,0,.8-.08c0,.29,0,.73.08,1a3.27,3.27,0,0,1-.84.08h-1.34c-1.08,0-1.33-.37-1.33-1.42V54.38Zm-.36,4.31a4.14,4.14,0,0,1-.37.46,6.86,6.86,0,0,0,1.3,1.28A6,6,0,0,0,190,58.77Z"/><path class="cls-2" d="M205.94,61.67v1.17h-12V61.67h5.3V59.46h-4.1V58.3h4.1V56.74h1.31V58.3h4.24v1.16h-4.24v2.21Zm-1.51-4.6a10.42,10.42,0,0,0-.78-.92c-7.09.31-7.89.32-8.44.53-.07-.26-.27-.89-.4-1.23a2.14,2.14,0,0,0,.92-.62,14,14,0,0,0,1.82-2h-3.31V51.64H205.5V52.8h-6.33a20.55,20.55,0,0,1-2.23,2.5l5.65-.19c-.5-.46-1-.9-1.51-1.28l1-.66a20.1,20.1,0,0,1,3.44,3.14Z"/><path class="cls-2" d="M218.61,57.72s0,.36,0,.55c-.18,2.83-.38,4-.81,4.45a1.54,1.54,0,0,1-1.14.48c-.43,0-1.22,0-2.05,0a3.11,3.11,0,0,0-.43-1.25,18,18,0,0,0,1.94.09.78.78,0,0,0,.57-.15c.26-.25.43-1.1.58-3h-3.87c-.6,2-1.92,3.62-5.35,4.48a3.45,3.45,0,0,0-.71-1.11c2.95-.66,4.14-1.83,4.68-3.37h-4.06V57.72h4.36c.07-.42.12-.87.17-1.31h1.34c0,.44-.11.89-.17,1.31Zm-.54-1.79h-9.3V51.55h9.3Zm-1.32-3.19H210v2h6.74Z"/><path class="cls-2" d="M233.08,56.31v1.38H220.8V56.31Z"/><path class="cls-2" d="M238,51.33a20.16,20.16,0,0,1-1.07,2.59v9.42h-1.2V56.06a12.72,12.72,0,0,1-1.12,1.48,8.23,8.23,0,0,0-.62-1.32A15.17,15.17,0,0,0,236.79,51Zm8.23.37V63.2H245v-.68h-5.57v.8h-1.14V51.7ZM245,61.41V52.79h-5.57v8.62Zm-2.27-5.87v1.35h1.43v3.59h-3.78V56.89h1.35V55.54h-1.81v-.93h1.81V53.15h1v1.46h1.87v.93Zm.46,2.26h-1.88v1.78h1.88Z"/><path class="cls-2" d="M249.43,55.56h-1.24V52.43h5.1c-.16-.41-.37-.85-.55-1.22l1.32-.36c.25.48.58,1.09.78,1.58h4.79v2.82h-1.29V53.56H256V55.5c0,.38.08.52.46.52h2.17a6,6,0,0,0,1.16-.1c0,.34.07.82.12,1.12a6.09,6.09,0,0,1-1.25.08h-2.22c-1.33,0-1.68-.42-1.68-1.63V53.56h-1.46c-.19,2.32-.92,3.47-4.47,4a3.28,3.28,0,0,0-.59-1c3.1-.38,3.63-1.16,3.78-3h-2.62Zm5.21,6.3h5.1v1.19H248.19V61.86h5.14V59.28h-3.82V58.12h8.95v1.16h-3.82Z"/><path class="cls-2" d="M263.14,56.18v7.15h-1.25V51.48h5v4.7Zm0-3.75v.93h2.55v-.93Zm2.55,2.82v-1h-2.55v1ZM273,61.77c0,.71-.15,1.12-.63,1.33a6.92,6.92,0,0,1-2.35.22,6,6,0,0,0-.39-1.23H266v.67h-1.14V57.11h5.06v4.94c.66,0,1.31,0,1.52,0s.31-.08.31-.31V56.21h-3.83V51.48H273Zm-7-3.72v1.06h2.74V58.05Zm2.74,3.09V60H266v1.12Zm.38-8.71v.93h2.63v-.93Zm2.63,2.84v-1h-2.63v1Z"/></g></svg>