<svg xmlns="http://www.w3.org/2000/svg" xmlns:xlink="http://www.w3.org/1999/xlink" viewBox="0 0 316 131"><defs><style>.cls-1{fill:url(#未命名漸層_46);}.cls-2{fill:none;stroke:#fff;stroke-miterlimit:10;stroke-width:0.5px;}.cls-3{fill:#fff;}</style><linearGradient id="未命名漸層_46" x1="141.5" y1="90.27" x2="141.5" y2="49.9" gradientUnits="userSpaceOnUse"><stop offset="0" stop-color="#243c95"/><stop offset="1" stop-color="#050c26"/></linearGradient></defs><g id="btn"><polygon class="cls-1" points="59 44 38 68 52 85 88 88 245 87 242 55 225 47 59 44"/><line class="cls-2" x1="56.84" y1="73.43" x2="82.21" y2="73.43"/><path class="cls-3" d="M95.66,67.09a14,14,0,0,1-.8,3.09c.25.13.52.34,1,.62a6.59,6.59,0,0,0,3.33.56,43.07,43.07,0,0,0,4.82-.27,4.56,4.56,0,0,0-.3,1.09c-.93.06-3.15.14-4.56.14a6.68,6.68,0,0,1-3.48-.64c-.48-.27-.92-.66-1.18-.66s-.59.76-.85,1.47l-.72-1a6,6,0,0,1,1-1.18,12.71,12.71,0,0,0,.69-2.41H93.36c.26-.71.57-1.69.83-2.62H93.1v-1h2.28c-.22.84-.52,1.8-.77,2.63h.46l.16,0Zm-1.43-3.24c-.13-.52-.39-1.36-.55-2l.88-.26c.21.61.45,1.4.6,1.91Zm3.5,4.7a3.09,3.09,0,0,1-1.26,1.94,2.38,2.38,0,0,0-.57-.66A3.15,3.15,0,0,0,97,67.24H95.87v-.77h1.7a2.76,2.76,0,0,0-.3-.5l.5-.19H96.22V62.49h1.24a8.3,8.3,0,0,0,.2-.93l1.12.09c-.11.3-.24.57-.36.84h1.35v3a11.9,11.9,0,0,0,1.14-3.88l.93.14c-.09.55-.2,1.08-.32,1.6h2.22v.94h-.43a14.67,14.67,0,0,1-.8,3.36,26.25,26.25,0,0,1,1.27,2.3l-.8.4c-.22-.49-.54-1.11-.9-1.76A6.46,6.46,0,0,1,100,70.82a8,8,0,0,0-.6-.65.76.76,0,0,1-.52.2,4.65,4.65,0,0,1-.86,0,2.13,2.13,0,0,0-.19-.74,5.78,5.78,0,0,0,.64,0,.27.27,0,0,0,.24-.08,2.92,2.92,0,0,0,.15-1Zm-.63-4.76h1.76V63.2H97.1Zm0,1.28h1.76v-.6H97.1Zm1.11.71a4.47,4.47,0,0,1,.41.69h1.55v.77H97.94l-.06.53h1.93l0,.34A6.88,6.88,0,0,1,99.56,70a5.37,5.37,0,0,0,2-2.33c-.32-.56-.67-1.1-1-1.58-.07.13-.16.26-.24.39a5.22,5.22,0,0,0-.76-.58l0-.09Zm3-1.51a9.42,9.42,0,0,1-.69,1.7l.68-.28c.21.29.43.62.65,1a12.81,12.81,0,0,0,.47-2.39Z"/><path class="cls-3" d="M109,64.37h-4.08V63.5H109Zm-.33,1.52h-3.46V65h3.46Zm-3.45.74h3.46v.85h-3.46Zm3.44,5.11h-2.48v.5h-.94v-4h3.42Zm-2.48-2.6v1.72h1.53V69.14Zm.64-5.68a13.18,13.18,0,0,0-.57-1.61l.92-.27a11.5,11.5,0,0,1,.63,1.55Zm8.26,7.88c0,.49-.1.75-.45.89a4.22,4.22,0,0,1-1.59.15,3.77,3.77,0,0,0-.31-.89c.5,0,1,0,1.12,0s.2-.05.2-.18v-.78h-3.46a4,4,0,0,1-.85,2,4,4,0,0,0-.77-.71,4.53,4.53,0,0,0,.77-2.93V66.75h5.34Zm.63-6v.83h-6.6v-.83h2.7v-.66h-2.26v-.78h2.26v-.61h-2.55v-.8h2.55v-.91h1.06v.91h2.71v.8h-2.71v.61h2.49v.78h-2.49v.66Zm-1.66,4.48v-.73h-3.32a6.29,6.29,0,0,1,0,.73Zm-3.32-2.21v.72h3.32v-.72Z"/><path class="cls-3" d="M120.26,61.91a19.37,19.37,0,0,1-1.17,2.49v8h-1V66a13.24,13.24,0,0,1-1,1.24,8.53,8.53,0,0,0-.6-1.11,13.19,13.19,0,0,0,2.8-4.56Zm4.14,2.85v6.37c0,.57-.12.88-.47,1.07a3.9,3.9,0,0,1-1.64.22,3.54,3.54,0,0,0-.39-1.1c.54,0,1,0,1.2,0s.21,0,.21-.19V64.76h-1.6a10.91,10.91,0,0,1-1.13,1.94,7.28,7.28,0,0,0-.9-.72,11,11,0,0,0,2-4.38l1.09.24a15.68,15.68,0,0,1-.6,1.91h4.47l.18,0,.77.15c-.16.9-.37,1.94-.52,2.61l-.94-.18c.09-.4.17-1,.24-1.53Zm-1.94,2.11a11.7,11.7,0,0,1-1.67,4,5.92,5.92,0,0,0-.93-.6,9,9,0,0,0,1.52-3.59Zm3.58-.31a14.78,14.78,0,0,1,1.4,3.88l-1,.38a15.52,15.52,0,0,0-1.33-3.94Z"/><path class="cls-3" d="M133.94,63.66s0,.39,0,.55c-.21,5.05-.39,6.82-.82,7.38a1.14,1.14,0,0,1-.84.52,6.84,6.84,0,0,1-1.31,0,2.8,2.8,0,0,0-.32-1.12l1.09,0a.45.45,0,0,0,.41-.22c.3-.35.5-1.91.67-6.1h-1.45c-.14,3-.56,5.81-2,7.64a3.6,3.6,0,0,0-.87-.78c1.32-1.61,1.69-4.19,1.79-6.86h-1.51V63.66h1.55c0-.69,0-1.4,0-2.08h1.11c0,.68,0,1.39,0,2.08Zm4.93-.71v9.16h-1.13v-.76h-2v.85h-1.09V63Zm-1.13,7.35V64h-2V70.3Z"/><path class="cls-3" d="M146.51,62.23c0,2.14.27,6.53,4.78,9.19a5.68,5.68,0,0,0-.89.94,10.07,10.07,0,0,1-4.53-6.21,10.39,10.39,0,0,1-4.54,6.23,9.16,9.16,0,0,0-1-.89c2.55-1.31,4-3.64,4.66-6.84l.61.1a13,13,0,0,1-.16-1.41h-2.81V62.23Z"/><path class="cls-3" d="M154.61,68V71.1c0,.54-.11.83-.42,1a3.2,3.2,0,0,1-1.47.21,4,4,0,0,0-.3-1c.44,0,.85,0,1,0s.19,0,.19-.19V68.32l-1.06.39-.29-1c.39-.11.85-.27,1.35-.45V64.87h-1.22v-1h1.22V61.56h1v2.29h.9v1h-.9v2l.85-.31.18,1Zm5.72.4a7.62,7.62,0,0,0,2.77,2.45,4,4,0,0,0-.73.86A8.45,8.45,0,0,1,159.68,69v3.39h-1.09V69.12a7.45,7.45,0,0,1-2.7,2.6,4.33,4.33,0,0,0-.71-.83,6.65,6.65,0,0,0,2.8-2.54h-2.14v-1h2.75V66.12h1.09v1.23h3.16v1Zm-1.49-4.92c-.11,1.65-.55,2.57-2.66,3.06a2.4,2.4,0,0,0-.55-.84c1.79-.34,2.13-1,2.21-2.22Zm-1.94.95h-1V62.16h6.77v2.18H161.6V63.1h-4.7Zm5.16.87a3.24,3.24,0,0,0,.71-.06c0,.26.06.68.08.91a2.68,2.68,0,0,1-.76.07H160.9c-1,0-1.23-.32-1.23-1.32V63.4h1v1.46c0,.31.05.39.25.39Z"/><path class="cls-3" d="M167.89,70.24a13.34,13.34,0,0,1-2.81,2,8.84,8.84,0,0,0-.85-.74,10,10,0,0,0,2.66-1.65Zm2.31-.93v1.91c0,.53-.12.82-.55,1a5.66,5.66,0,0,1-1.89.17,4.48,4.48,0,0,0-.39-1,12.8,12.8,0,0,0,1.52,0c.19,0,.24,0,.24-.17V69.38c-3.26.2-3.74.26-4.08.39,0-.19-.18-.68-.27-.94a6.43,6.43,0,0,0,1.58-.48c.33-.12,1-.4,1.85-.78a10.72,10.72,0,0,0-2.32.23c0-.2-.18-.66-.27-.92a3,3,0,0,0,.86-.32,14.88,14.88,0,0,0,2-1.22h-3.14V66.7h-1V64.42h4.57v-.93h-4.4v-1h4.4v-1H170v1h4.39v1H170v.93h4.6V66.7h-1.09V65.34h-4.16l.31.25a16,16,0,0,1-2.24,1.3l2.32-.12a14.63,14.63,0,0,0,1.69-1l.76.65a28.66,28.66,0,0,1-4.57,2.21l4.5-.26c-.27-.26-.57-.52-.82-.73l.77-.48a17.38,17.38,0,0,1,2.37,2.29l-.83.57a8.72,8.72,0,0,0-.77-.9Zm1.59.45a19.83,19.83,0,0,1,2.88,1.81l-.89.61A20,20,0,0,0,171,70.3Z"/><path class="cls-3" d="M180.19,70.41l1.46-.28.09,1.12c-2,.36-4.12.74-5.64,1l-.17-1.16.91-.14V64h1.09V70.8l1.1-.18V61.55h1.16v3.54h1.49v1.06h-1.49Zm5.05.58c.45,0,.52-.42.58-2a3.17,3.17,0,0,0,1.05.5c-.13,1.9-.42,2.61-1.53,2.61h-1.63c-1.18,0-1.51-.4-1.51-1.84V61.55h1.16v3.56h2.78v1h-2.78v4.09c0,.63.07.74.52.74Z"/><path class="cls-3" d="M191.41,67.85l.26,1c-1.24.59-2.57,1.21-3.6,1.67l-.44-1.1c.43-.16,1-.37,1.58-.62v-3.4h-1.35v-1h1.35V61.7h1v2.63h1.19v1h-1.19v3Zm5.38,3.32c.65,0,.77-.29.86-1.58a3.16,3.16,0,0,0,1,.4c-.15,1.63-.48,2.17-1.76,2.17h-2.72c-1.46,0-1.87-.37-1.87-1.79V67l-.82.36-.41-1,1.23-.52V62.67h1v2.7l1.33-.56V61.56h1v2.81l1.59-.67.82.27,0,.18a38.94,38.94,0,0,1-.57,5.16l-.9-.25a35.73,35.73,0,0,0,.37-4.11l-1.26.55v4.24h-1V65.93l-1.33.57v3.88c0,.66.13.79.89.79Z"/><path class="cls-3" d="M210.06,63.38s0,.38,0,.52c-.16,5.33-.3,7.17-.78,7.76a1.32,1.32,0,0,1-1,.56,14.92,14.92,0,0,1-1.78,0,2.71,2.71,0,0,0-.36-1.07c.76.06,1.45.07,1.74.07a.52.52,0,0,0,.5-.2c.38-.39.53-2.18.68-6.64h-2.79a11.47,11.47,0,0,1-1.07,2,5.73,5.73,0,0,0-.87-.61v5.43h-3.2v.9h-1V63.44h1.33a14.61,14.61,0,0,0,.41-1.92l1.2.2c-.21.59-.43,1.22-.62,1.72h1.89v2.23a11.35,11.35,0,0,0,1.77-4.15l1.06.25c-.14.54-.29,1.09-.48,1.61Zm-9,1v2.24h2.2V64.4Zm2.2,5.82V67.6h-2.2v2.62Zm3.94-.93a18.9,18.9,0,0,0-1.73-2.73l.86-.48a21.62,21.62,0,0,1,1.79,2.63Z"/><path class="cls-3" d="M215.84,65.83s0,.31,0,.45c-.09,3.83-.19,5.14-.47,5.55a.9.9,0,0,1-.72.42,6.9,6.9,0,0,1-1.15,0,2.09,2.09,0,0,0-.26-1c.39,0,.75,0,.92,0a.32.32,0,0,0,.32-.16c.19-.25.29-1.35.36-4.38h-1.15a9.6,9.6,0,0,1-1.62,5.57,4.6,4.6,0,0,0-.8-.62,9.37,9.37,0,0,0,1.45-5.6V64.46h-1.19v-1h2.15a10.66,10.66,0,0,0-.6-1.6l.95-.32a8.47,8.47,0,0,1,.65,1.59l-.93.33h2.35v1h-2.4v1.37Zm1.86-1.78a7.28,7.28,0,0,1-1.14,1.74,5.5,5.5,0,0,0-.88-.67,7.61,7.61,0,0,0,1.81-3.57l1.07.2c-.12.43-.26.88-.41,1.3h3.9v1Zm4.39,3a16.44,16.44,0,0,1-1.7,1.46,5.33,5.33,0,0,0,1.83,2.81,3.78,3.78,0,0,0-.75.9c-1.53-1.17-2.24-3.44-2.63-6.16l-1,.21v4.44l1.62-.67a7.11,7.11,0,0,0,.15,1A14.75,14.75,0,0,0,217,72.32a3.09,3.09,0,0,0-.56-.78,1.42,1.42,0,0,0,.45-1.1V65.58A19.28,19.28,0,0,0,221,64.3l.87.77a16.11,16.11,0,0,1-2.07.72,13.1,13.1,0,0,0,.32,1.74,14.8,14.8,0,0,0,1.19-1.18Z"/><path class="cls-3" d="M226.84,69c-.15-.37-.51-1-.82-1.58v5H225V67.51a11.86,11.86,0,0,1-1.39,2.94,5.23,5.23,0,0,0-.51-1.07,11.9,11.9,0,0,0,1.64-3.47h-1.46v-1H225V63.21c-.43.09-.87.16-1.28.22a3.67,3.67,0,0,0-.3-.86,15.09,15.09,0,0,0,3.33-.94l.62.9A12.1,12.1,0,0,1,226,63v1.94h1.43v1H226v.25c.31.38,1.24,1.6,1.44,1.89ZM234,71.16v1h-6.77v-1h2.94V69.8h-2.31v-.94h2.31V67.64c-.67.07-1.34.12-1.95.14a3.33,3.33,0,0,0-.26-.85,26.22,26.22,0,0,0,4.73-.65l.7.83a19.4,19.4,0,0,1-2.13.4v1.35h2.27v.94h-2.27v1.36ZM233.4,66h-5.46V62.11h5.46Zm-1.07-2.92H229v2h3.36Z"/><path class="cls-3" d="M58.3,63.55c0-3.54,2-5.68,4.73-5.68A3.91,3.91,0,0,1,66,59.22l-.73.9a2.9,2.9,0,0,0-2.19-1c-2,0-3.36,1.7-3.36,4.43S61,68,63,68a3.23,3.23,0,0,0,2.48-1.22l.74.86a4.07,4.07,0,0,1-3.28,1.56C60.29,69.19,58.3,67.09,58.3,63.55Z"/></g></svg>